<?xml version="1.0" encoding="UTF-8" standalone="no"?>
<!-- Created with Inkscape (http://www.inkscape.org/) -->

<svg
   xmlns:dc="http://purl.org/dc/elements/1.1/"
   xmlns:cc="http://creativecommons.org/ns#"
   xmlns:rdf="http://www.w3.org/1999/02/22-rdf-syntax-ns#"
   xmlns:svg="http://www.w3.org/2000/svg"
   xmlns="http://www.w3.org/2000/svg"
   xmlns:sodipodi="http://sodipodi.sourceforge.net/DTD/sodipodi-0.dtd"
   xmlns:inkscape="http://www.inkscape.org/namespaces/inkscape"
   width="100mm"
   height="85mm"
   viewBox="0 0 100 85"
   version="1.1"
   id="svg4756"
   inkscape:version="0.92.0 r"
   sodipodi:docname="zetawar_logo.svg">
  <defs
     id="defs4750" />
  <sodipodi:namedview
     id="base"
     pagecolor="#646464"
     bordercolor="#000000"
     borderopacity="1"
     inkscape:pageopacity="0"
     inkscape:pageshadow="2"
     inkscape:zoom="1.979899"
     inkscape:cx="58.475816"
     inkscape:cy="191.54468"
     inkscape:document-units="mm"
     inkscape:current-layer="layer1"
     showgrid="false"
     units="mm"
     borderlayer="false"
     width="80mm"
     inkscape:window-width="1920"
     inkscape:window-height="1034"
     inkscape:window-x="0"
     inkscape:window-y="22"
     inkscape:window-maximized="0" />
  <metadata
     id="metadata4753">
    <rdf:RDF>
      <cc:Work
         rdf:about="">
        <dc:format>image/svg+xml</dc:format>
        <dc:type
           rdf:resource="http://purl.org/dc/dcmitype/StillImage" />
        <dc:title></dc:title>
      </cc:Work>
    </rdf:RDF>
  </metadata>
  <g
     inkscape:label="Layer 1"
     inkscape:groupmode="layer"
     id="layer1"
     transform="translate(0,-212)">
    <g
       id="g5414"
       transform="translate(8.6871491e-7,7.5000002)">
      <g
         id="g68"
         transform="matrix(0.49578683,0,0,0.49578683,-191.49256,96.009856)"
         style="clip-rule:evenodd;fill:#eee8d5;fill-opacity:1;fill-rule:evenodd;stroke:none;stroke-width:1.00042999;stroke-linecap:round;stroke-linejoin:round;stroke-miterlimit:1.41420996;stroke-dasharray:none;stroke-opacity:1">
        <path
           id="path66"
           style="fill:#eee8d5;fill-opacity:1;stroke:none;stroke-width:1.00042999;stroke-miterlimit:1.41420996;stroke-dasharray:none;stroke-opacity:1"
           d="m 487.185,223.671 0.096,0.003 0.096,0.003 0.096,0.006 0.096,0.007 0.096,0.008 0.095,0.011 0.096,0.011 0.095,0.013 0.095,0.015 0.095,0.016 0.095,0.018 0.095,0.02 0.094,0.021 0.094,0.022 0.094,0.024 0.093,0.026 0.093,0.027 0.093,0.029 0.092,0.03 0.092,0.032 0.046,0.016 0.046,0.017 0.045,0.018 0.046,0.017 0.045,0.018 0.045,0.019 0.045,0.018 0.046,0.02 0.044,0.019 0.045,0.02 0.045,0.021 0.044,0.02 0.045,0.022 0.044,0.021 0.044,0.022 0.044,0.022 0.044,0.023 0.044,0.023 0.043,0.024 0.044,0.024 0.043,0.024 0.043,0.024 64.902,37.471 0.043,0.025 0.042,0.026 0.043,0.025 0.042,0.026 0.042,0.027 0.041,0.026 0.042,0.027 0.041,0.028 0.04,0.027 0.041,0.028 0.04,0.028 0.04,0.029 0.04,0.028 0.039,0.03 0.039,0.029 0.039,0.03 0.039,0.03 0.038,0.03 0.038,0.03 0.038,0.031 0.038,0.031 0.037,0.032 0.073,0.064 0.073,0.064 0.071,0.066 0.07,0.067 0.069,0.068 0.068,0.07 0.066,0.07 0.065,0.071 0.064,0.072 0.063,0.073 0.062,0.074 0.06,0.075 0.059,0.076 0.058,0.077 0.057,0.078 0.055,0.078 0.054,0.08 0.053,0.08 0.051,0.082 0.05,0.082 0.049,0.082 0.047,0.084 0.046,0.084 0.045,0.085 0.043,0.086 0.042,0.087 0.04,0.087 0.039,0.088 0.038,0.088 0.036,0.089 0.035,0.09 0.033,0.09 0.032,0.091 0.031,0.092 0.029,0.092 0.027,0.093 0.026,0.093 0.025,0.094 0.023,0.094 0.021,0.094 0.02,0.095 0.018,0.096 0.009,0.048 0.008,0.048 0.008,0.048 0.008,0.048 0.007,0.049 0.006,0.048 0.007,0.049 0.006,0.048 0.005,0.049 0.005,0.049 0.005,0.049 0.004,0.049 0.004,0.049 0.003,0.049 0.003,0.049 0.003,0.049 0.002,0.049 0.002,0.05 0.002,0.049 10e-4,0.05 v 0.049 l 10e-4,0.05 v 74.942 l -10e-4,0.05 v 0.049 l -10e-4,0.05 -0.002,0.049 -0.002,0.05 -0.002,0.049 -0.003,0.049 -0.003,0.049 -0.003,0.05 -0.004,0.049 -0.004,0.049 -0.005,0.048 -0.005,0.049 -0.005,0.049 -0.006,0.049 -0.007,0.048 -0.006,0.048 -0.007,0.049 -0.008,0.048 -0.008,0.048 -0.008,0.048 -0.009,0.048 -0.018,0.096 -0.02,0.095 -0.021,0.094 -0.023,0.095 -0.025,0.093 -0.026,0.093 -0.027,0.093 -0.029,0.092 -0.031,0.092 -0.032,0.091 -0.033,0.09 -0.035,0.09 -0.036,0.089 -0.038,0.089 -0.039,0.087 -0.04,0.088 -0.042,0.086 -0.043,0.086 -0.045,0.085 -0.046,0.084 -0.047,0.084 -0.049,0.083 -0.05,0.082 -0.051,0.081 -0.053,0.08 -0.054,0.08 -0.055,0.078 -0.057,0.078 -0.058,0.077 -0.059,0.076 -0.06,0.075 -0.062,0.074 -0.063,0.073 -0.064,0.072 -0.065,0.071 -0.066,0.071 -0.068,0.069 -0.069,0.068 -0.07,0.067 -0.071,0.066 -0.073,0.065 -0.073,0.063 -0.037,0.032 -0.038,0.031 -0.038,0.031 -0.038,0.03 -0.038,0.031 -0.039,0.03 -0.039,0.029 -0.039,0.03 -0.039,0.029 -0.04,0.028 -0.04,0.029 -0.04,0.028 -0.041,0.028 -0.04,0.028 -0.041,0.027 -0.042,0.027 -0.041,0.026 -0.042,0.027 -0.042,0.026 -0.043,0.025 -0.042,0.026 -0.043,0.025 -64.902,37.471 -0.043,0.024 -0.043,0.025 -0.044,0.023 -0.043,0.024 -0.044,0.023 -0.044,0.023 -0.044,0.022 -0.044,0.022 -0.044,0.022 -0.045,0.021 -0.044,0.02 -0.045,0.021 -0.045,0.02 -0.044,0.019 -0.046,0.02 -0.045,0.018 -0.045,0.019 -0.045,0.018 -0.046,0.018 -0.045,0.017 -0.046,0.017 -0.046,0.016 -0.092,0.032 -0.092,0.03 -0.093,0.029 -0.093,0.027 -0.093,0.026 -0.094,0.024 -0.094,0.022 -0.094,0.021 -0.095,0.02 -0.095,0.018 -0.095,0.016 -0.095,0.015 -0.095,0.013 -0.096,0.012 -0.095,0.01 -0.096,0.008 -0.096,0.007 -0.096,0.006 -0.096,0.004 -0.096,0.002 -0.096,0.001 -0.096,-0.001 -0.096,-0.002 -0.096,-0.004 -0.096,-0.006 -0.095,-0.007 -0.096,-0.008 -0.096,-0.01 -0.095,-0.012 -0.096,-0.013 -0.095,-0.015 -0.095,-0.016 -0.095,-0.018 -0.094,-0.02 -0.094,-0.021 -0.094,-0.022 -0.094,-0.024 -0.093,-0.026 -0.093,-0.027 -0.093,-0.029 -0.092,-0.03 -0.092,-0.032 -0.046,-0.016 -0.046,-0.017 -0.046,-0.017 -0.045,-0.018 -0.045,-0.018 -0.046,-0.019 -0.045,-0.018 -0.045,-0.02 -0.045,-0.019 -0.045,-0.02 -0.044,-0.021 -0.045,-0.02 -0.044,-0.021 -0.044,-0.022 -0.045,-0.022 -0.044,-0.022 -0.043,-0.023 -0.044,-0.023 -0.044,-0.024 -0.043,-0.023 -0.043,-0.025 -0.043,-0.024 -64.902,-37.471 -0.043,-0.025 -0.043,-0.026 -0.042,-0.025 -0.042,-0.026 -0.042,-0.027 -0.042,-0.026 -0.041,-0.027 -0.041,-0.027 -0.041,-0.028 -0.04,-0.028 -0.041,-0.028 -0.04,-0.029 -0.039,-0.028 -0.04,-0.029 -0.039,-0.03 -0.039,-0.029 -0.038,-0.03 -0.039,-0.031 -0.038,-0.03 -0.037,-0.031 -0.038,-0.031 -0.037,-0.032 -0.074,-0.063 -0.072,-0.065 -0.071,-0.066 -0.07,-0.067 -0.069,-0.068 -0.068,-0.069 -0.066,-0.071 -0.066,-0.071 -0.064,-0.072 -0.063,-0.073 -0.061,-0.074 -0.061,-0.075 -0.059,-0.076 -0.057,-0.077 -0.057,-0.078 -0.055,-0.078 -0.054,-0.08 -0.053,-0.08 -0.051,-0.081 -0.05,-0.082 -0.049,-0.083 -0.047,-0.084 -0.046,-0.084 -0.045,-0.085 -0.043,-0.086 -0.042,-0.086 -0.041,-0.088 -0.039,-0.087 -0.037,-0.089 -0.037,-0.089 -0.034,-0.09 -0.034,-0.09 -0.032,-0.091 -0.03,-0.092 -0.029,-0.092 -0.028,-0.093 -0.026,-0.093 -0.024,-0.093 -0.023,-0.095 -0.022,-0.094 -0.019,-0.095 -0.019,-0.096 -0.008,-0.048 -0.009,-0.048 -0.008,-0.048 -0.007,-0.048 -0.007,-0.049 -0.007,-0.048 -0.006,-0.048 -0.006,-0.049 -0.005,-0.049 -0.005,-0.049 -0.005,-0.048 -0.004,-0.049 -0.004,-0.049 -0.004,-0.05 -0.003,-0.049 -0.003,-0.049 -0.002,-0.049 -0.002,-0.05 -0.001,-0.049 -10e-4,-0.05 -10e-4,-0.049 v -0.05 -74.942 -0.05 l 10e-4,-0.049 10e-4,-0.05 0.001,-0.049 0.002,-0.05 0.002,-0.049 0.003,-0.049 0.003,-0.049 0.004,-0.049 0.004,-0.049 0.004,-0.049 0.005,-0.049 0.005,-0.049 0.005,-0.049 0.006,-0.048 0.006,-0.049 0.007,-0.048 0.007,-0.049 0.007,-0.048 0.008,-0.048 0.009,-0.048 0.008,-0.048 0.019,-0.096 0.019,-0.095 0.022,-0.094 0.023,-0.094 0.024,-0.094 0.026,-0.093 0.028,-0.093 0.029,-0.092 0.03,-0.092 0.032,-0.091 0.034,-0.09 0.034,-0.09 0.037,-0.089 0.037,-0.088 0.039,-0.088 0.041,-0.087 0.042,-0.087 0.043,-0.086 0.045,-0.085 0.046,-0.084 0.047,-0.084 0.049,-0.082 0.05,-0.082 0.051,-0.082 0.053,-0.08 0.054,-0.08 0.055,-0.078 0.057,-0.078 0.057,-0.077 0.059,-0.076 0.061,-0.075 0.061,-0.074 0.063,-0.073 0.064,-0.072 0.066,-0.071 0.066,-0.07 0.068,-0.07 0.069,-0.068 0.07,-0.067 0.071,-0.066 0.072,-0.064 0.074,-0.064 0.037,-0.032 0.038,-0.031 0.037,-0.031 0.038,-0.03 0.039,-0.03 0.038,-0.03 0.039,-0.03 0.039,-0.029 0.04,-0.03 0.039,-0.028 0.04,-0.029 0.041,-0.028 0.04,-0.028 0.041,-0.027 0.041,-0.028 0.041,-0.027 0.042,-0.026 0.042,-0.027 0.042,-0.026 0.042,-0.025 0.043,-0.026 0.043,-0.025 64.902,-37.471 0.043,-0.024 0.043,-0.024 0.043,-0.024 0.044,-0.024 0.044,-0.023 0.043,-0.023 0.044,-0.022 0.045,-0.022 0.044,-0.021 0.044,-0.022 0.045,-0.02 0.044,-0.021 0.045,-0.02 0.045,-0.019 0.045,-0.02 0.045,-0.018 0.046,-0.019 0.045,-0.018 0.045,-0.017 0.046,-0.018 0.046,-0.017 0.046,-0.016 0.092,-0.032 0.092,-0.03 0.093,-0.029 0.093,-0.027 0.093,-0.026 0.094,-0.024 0.094,-0.022 0.094,-0.021 0.094,-0.02 0.095,-0.018 0.095,-0.016 0.095,-0.015 0.096,-0.013 0.095,-0.011 0.096,-0.011 0.096,-0.008 0.095,-0.007 0.096,-0.006 0.096,-0.003 0.096,-0.003 h 0.096 z m -63.516,44.259 v 73.232 l 63.42,36.615 63.42,-36.615 V 267.93 l -63.42,-36.615 z"
           inkscape:connector-curvature="0" />
      </g>
      <g
         id="g72"
         transform="matrix(0.15984008,0,0,0.15984008,-51.772862,179.24778)"
         style="clip-rule:evenodd;fill:#eee8d5;fill-opacity:1;fill-rule:evenodd;stroke-linecap:round;stroke-linejoin:round;stroke-miterlimit:1.41420996">
        <path
           id="path70"
           style="fill:#eee8d5;fill-opacity:1"
           d="m 544.324,362.81 c -2.504,0.048 -4.664,-1.751 -5.069,-4.223 -2.187,-13.345 -8.832,-53.884 -10.939,-66.739 -0.161,-0.986 0.118,-1.993 0.765,-2.754 0.647,-0.762 1.596,-1.201 2.595,-1.201 25.54,0 165.427,0 195.081,0 1.037,0 1.984,0.589 2.442,1.519 0.459,0.931 0.349,2.041 -0.283,2.863 -22.963,29.896 -156.459,203.695 -183.48,238.872 -0.694,0.904 -1.886,1.265 -2.964,0.898 -1.079,-0.366 -1.804,-1.379 -1.804,-2.518 0,-12.818 0,-37.531 0,-44.205 0,-1.1 0.361,-2.169 1.028,-3.044 10.255,-13.446 94.103,-123.385 111.293,-145.924 0.578,-0.758 0.676,-1.779 0.253,-2.633 -0.423,-0.855 -1.294,-1.396 -2.247,-1.396 -13.479,0 -50.06,0 -62.874,0 -1.139,0 -2.222,0.491 -2.973,1.347 -0.751,0.856 -1.097,1.994 -0.948,3.122 0.687,5.239 1.826,13.926 2.57,19.604 0.187,1.422 -0.241,2.855 -1.177,3.942 -0.935,1.087 -2.289,1.724 -3.722,1.751 -9.592,0.184 -28.899,0.553 -37.547,0.719 z"
           inkscape:connector-curvature="0" />
      </g>
      <g
         id="g76"
         transform="matrix(-0.15984008,0,0,-0.15984008,151.77203,314.75412)"
         style="clip-rule:evenodd;fill:#eee8d5;fill-opacity:1;fill-rule:evenodd;stroke:none;stroke-linecap:round;stroke-linejoin:round;stroke-miterlimit:1.41420996;stroke-opacity:1">
        <path
           id="path74"
           style="fill:#eee8d5;fill-opacity:1;stroke:none;stroke-opacity:1"
           d="m 544.324,362.81 c -2.504,0.048 -4.664,-1.751 -5.069,-4.223 -2.187,-13.345 -8.832,-53.884 -10.939,-66.739 -0.161,-0.986 0.118,-1.993 0.765,-2.754 0.647,-0.762 1.596,-1.201 2.595,-1.201 25.54,0 165.427,0 195.081,0 1.037,0 1.984,0.589 2.442,1.519 0.459,0.931 0.349,2.041 -0.283,2.863 -22.963,29.896 -156.459,203.695 -183.48,238.872 -0.694,0.904 -1.886,1.265 -2.964,0.898 -1.079,-0.366 -1.804,-1.379 -1.804,-2.518 0,-12.818 0,-37.531 0,-44.205 0,-1.1 0.361,-2.169 1.028,-3.044 10.255,-13.446 94.103,-123.385 111.293,-145.924 0.578,-0.758 0.676,-1.779 0.253,-2.633 -0.423,-0.855 -1.294,-1.396 -2.247,-1.396 -13.479,0 -50.06,0 -62.874,0 -1.139,0 -2.222,0.491 -2.973,1.347 -0.751,0.856 -1.097,1.994 -0.948,3.122 0.687,5.239 1.826,13.926 2.57,19.604 0.187,1.422 -0.241,2.855 -1.177,3.942 -0.935,1.087 -2.289,1.724 -3.722,1.751 -9.592,0.184 -28.899,0.553 -37.547,0.719 z"
           inkscape:connector-curvature="0" />
      </g>
    </g>
  </g>
</svg>
